<?xml version="1.0" encoding="UTF-8"?>
<svg xmlns="http://www.w3.org/2000/svg" width="32" height="32" viewBox="0 0 32 32" fill="none">
  <!-- Brain outline -->
  <path d="M16 4C10.477 4 6 8.477 6 14C6 17.5 7.5 20.5 10 22.5C8.5 24 8 26 8 28H24C24 26 23.5 24 22 22.5C24.5 20.5 26 17.5 26 14C26 8.477 21.523 4 16 4Z" stroke="#4B5563" stroke-width="2" stroke-linecap="round" stroke-linejoin="round"/>
  
  <!-- Brain connections -->
  <path d="M12 14C12 14 14 12 16 12C18 12 20 14 20 14" stroke="#4B5563" stroke-width="2" stroke-linecap="round"/>
  <path d="M12 18C12 18 14 16 16 16C18 16 20 18 20 18" stroke="#4B5563" stroke-width="2" stroke-linecap="round"/>
  
  <!-- Word connections -->
  <path d="M8 8L4 4" stroke="#4B5563" stroke-width="2" stroke-linecap="round"/>
  <path d="M24 8L28 4" stroke="#4B5563" stroke-width="2" stroke-linecap="round"/>
  <path d="M8 24L4 28" stroke="#4B5563" stroke-width="2" stroke-linecap="round"/>
  <path d="M24 24L28 28" stroke="#4B5563" stroke-width="2" stroke-linecap="round"/>
  
  <!-- Gradient overlay -->
  <defs>
    <linearGradient id="gradient" x1="0%" y1="0%" x2="100%" y2="100%">
      <stop offset="0%" style="stop-color:#3B82F6"/>
      <stop offset="100%" style="stop-color:#8B5CF6"/>
    </linearGradient>
  </defs>
  
  <!-- Highlighted brain connections -->
  <path d="M12 14C12 14 14 12 16 12C18 12 20 14 20 14" stroke="url(#gradient)" stroke-width="2" stroke-linecap="round" opacity="0.7"/>
  <path d="M12 18C12 18 14 16 16 16C18 16 20 18 20 18" stroke="url(#gradient)" stroke-width="2" stroke-linecap="round" opacity="0.7"/>
</svg>